<svg width="640" height="480" xmlns="http://www.w3.org/2000/svg" xmlns:svg="http://www.w3.org/2000/svg">
 <!-- Created with SVG-edit - http://svg-edit.googlecode.com/ -->
 <g>
  <title>Layer 1</title>
  <g stroke="null" id="svg_1">
   <g stroke="null" id="svg_2">
    <path stroke="#000000" id="svg_3" d="m384.067719,292.028258l-86.266549,0.945739l-35.626301,-52.488602l44.532877,-60.054522l135.295118,41.612579c0,0 -81.686023,9.457399 -81.686023,9.457399c0,0 -40.715766,16.550465 -40.885422,16.077591c-0.169656,-0.472874 64.63629,44.449805 64.63629,44.449805l0.000012,0.000009l0,0l-0.000002,0.000002z" stroke-width="5" fill="#FF0000"/>
    <circle stroke="#000000" id="svg_5" r="11.869379" cy="189.888285" cx="268.70636" stroke-width="5" fill="#000000"/>
    <path stroke="#000000" id="svg_6" d="m306.201516,179.798269c0,0 -19.933759,-24.589251 -20.103412,-25.062125c-0.169656,-0.472874 -35.032527,-4.25583 -35.20218,-4.728704c-0.169656,-0.472874 -38.425504,21.752034 -38.59516,21.279158c-0.169656,-0.472874 -12.129909,68.566191 -12.299565,68.093317c-0.169656,-0.472874 17.558674,68.093317 17.38903,67.147578c-0.169656,-0.945739 -13.40228,41.612579 -13.571924,41.139714c-0.169656,-0.472874 102.807329,1.891478 102.637687,1.418613c-0.169656,-0.472874 -9.161053,-52.961476 -9.330694,-53.43435c-0.169656,-0.472874 -36.729027,-54.852954 -36.898671,-55.325828c-0.169656,-0.472874 45.974901,-60.527396 45.974901,-60.527396l-0.000012,0.000009l0,0.000009l0,0l0,0.000004z" stroke-width="5" fill="#000000"/>
    <circle stroke="#000000" id="svg_7" r="2.025016" cy="181.849479" cx="271.251099" stroke-linecap="null" stroke-linejoin="null" stroke-dasharray="null" stroke-width="5" fill="#ffff00"/>
    <circle stroke="#000000" id="svg_8" r="11.1325" cy="176.175046" cx="285.671261" stroke-linecap="null" stroke-linejoin="null" stroke-dasharray="null" stroke-width="5" fill="#ffff00"/>
    <circle stroke="#000000" id="svg_9" r="0.675009" cy="176.175046" cx="291.608976" stroke-linecap="null" stroke-linejoin="null" stroke-dasharray="null" stroke-width="5" fill="#ffff00"/>
   </g>
  </g>
 </g>
</svg>